<svg version="1" xmlns="http://www.w3.org/2000/svg" width="509.333" height="509.333" viewBox="0 0 382.000000 382.000000"><path d="M170.3 7.1C141.9 10.3 112.7 21 88.8 37c-12 8-14.6 10.1-24.6 19.5C46.4 73.2 29.7 96.9 21.6 117c-1.5 3.6-3 7.2-3.5 8-3.1 5.7-9.5 32-10.9 44.5-.9 9.1-.9 34.1.1 43 3.3 30.8 16.3 63.4 35.5 89 17.4 23.4 39.3 41.6 66.2 55.1 17.9 8.9 31.6 13.2 57 17.9 7.5 1.4 38.5 1.3 48.5-.1 26.7-3.7 48.7-11.3 71.1-24.5 44.7-26.4 77-72.4 87-123.9 2.3-11.4 2.9-19.1 2.9-35 0-18.1-.6-24.3-4.1-40.5-.2-1.1-.6-2.9-.8-4.1-1.5-7.2-7.8-24.7-12.7-35.1-25.5-54-77.1-92.7-136.9-102.9-13.6-2.3-36.6-2.9-50.7-1.3zM212 47.4c1.3.3 4.2.8 6.3 1.1 17.6 2.7 42.9 14 60.3 27.1 6.6 5 20.2 18.2 25.7 24.9 12.9 16 25.1 42 28.6 61 .6 3.3 1.4 7.1 1.7 8.5.3 1.4.7 9.7.9 18.5.3 18.9-1.5 31.4-6.9 47.8-15.7 47.3-53.5 82.5-102.2 95.2-12.6 3.3-18.7 4-35.4 3.9-17.5 0-20-.3-35.5-4-56.3-13.3-101.1-63.8-108.3-121.9-.9-7.7-.9-29.1 0-37.6 1.6-13.5 9.9-39.7 15-47.1 1-1.4 1.8-2.9 1.8-3.3 0-.5 1.9-3.8 4.2-7.4C79 97 94.1 81.5 111 70.3c18.1-12.1 36-18.8 61.5-23.2 5.3-.9 35.3-.7 39.5.3z"/><path d="M174 76c-2.5.4-6.7 1-9.5 1.5-6.8 1-21.5 6-27.6 9.4-14.7 8.1-24.8 18.4-29.9 30.6-3.5 8.5-4.4 14.2-4.3 25.6.1 17.1 4.7 28.4 15.5 38.4 10.4 9.6 23.3 15.6 60.3 27.9 35.3 11.8 41.3 14.4 47.1 20.2 8.3 8.5 8.7 23.6.7 32.4-7.5 8.4-20.8 12.2-40.8 11.6-18.2-.5-33.6-4.6-51.7-13.7-7.7-3.9-13.7-3.7-19.2.5-7.9 6-11.7 18.3-7.9 25.6 3.3 6.5 23.3 16.6 41.2 21 14.8 3.6 25.3 4.7 43.4 4.4 18.8-.2 23.6-.9 37.7-5.1 33.7-10 52-33.2 51.4-65.3 0-4.7-.4-10.1-.8-12-5.4-28.1-27.5-43.7-82.1-58-20.3-5.3-31.8-9.7-38.2-14.6-6.8-5.2-10.5-15.7-8.3-23.4 2.9-10.2 13.4-17.1 29.5-19.5 5-.7 24.1-.8 27.5-.1 1.3.3 4.2.8 6.3 1.1 6.3 1 20.8 6.1 30.1 10.6 7.4 3.6 9.2 4.1 12.7 3.5 10.6-1.7 18.1-15.2 14.1-25.6-4-10.4-29.4-22-57.7-26.5-5.9-.9-34.3-1.3-39.5-.5z"/></svg>